<svg width="784" height="544" fill="none" xmlns="http://www.w3.org/2000/svg"><g clip-path="url(#a)"><path fill="#E8E8E9" d="M0 0h783.8v544H0z"/><path d="m530.2 129.3 36.6-24.6L609.1 93l5 8.8-36.6 76.1-28.7 13.5-18.6-62ZM96.5 185.5-18 260l55.4 80.5L59 331l43-27 53.5-30.5-59-88ZM329.8 267.9 220.5 384.5l109.3 83.3L361 448l43.3-43.8 36.1-39.8-110.7-96.6ZM663.4 315l-9.6 10 10.8 50.7 18.7 53.2h25.2l20.5-93.3-65.6-20.6ZM145.5 455.5l-108.1-97-34.4 24L102 502l43.5-46.5Z" fill="#FEF7E4"/><path d="M107 52.3 89.7 87l-5.2 1.9 5.2 10L243 166.3l20.7-53.5L107 52.3ZM271.7 197.5l-114.5-53.6-32.2 26.6 122.5 45 24.2-18ZM392 143.9l49.7 43.9-37.2 50.7-65.5-59 53-35.6ZM498.8 499.3l-53.3-46 44.2-47.2 54.5 44.8-45.4 48.4ZM477.6 296.5l26.6-72.5 62.8-30 19 149.5-28 34.5-80.4-75.6v-5.9Z" fill="#D1ECCD"/><path fill-rule="evenodd" clip-rule="evenodd" d="M503.6 52.5a2.6 2.6 0 0 0 3.6 1L595.8-.2c1-.6 1.5-1.7 1-2.8l-4.6-13.8c-.4-1.3.3-2.7 1.6-3.2l19.4-6.1c1.3-.4 2.8.3 3.2 1.6l2.4 7a2.6 2.6 0 0 0 3.7 1.2l31-18.7c1.2-.7 2.8-.4 3.5.8l10.8 16.8c.8 1.1.4 2.6-.8 3.4L629.6 8.6c-1 .6-1.4 1.8-1 2.9l20.1 59.3c.5 1.4 2.1 2 3.5 1.5l91.4-40.8.5-.2 55.1-13.2c1.4-.3 2.8.5 3.1 1.8l4.9 19.2c.3 1.3-.5 2.6-1.9 3l-52.8 12.6c-.1 0-.3 0-.4.2l-37.5 16.7c-1 .4-1.6 1.4-1.5 2.4l6.3 86.3c.1 1 .8 2 1.9 2.2l10.4 3 26 3.7c1 .2 2.2-.3 2.6-1.3l19.1-38.9a2.6 2.6 0 0 1 3.4-1.2l7 3.2c1.2.6 1.7 2 1.1 3.3l-16.7 34.1c-.8 1.5.2 3.3 1.9 3.5l32.5 4.8c1.4.2 2.3 1.4 2.1 2.8l-3 19.5a2.5 2.5 0 0 1-3 2l-44.8-6.5c-1-.1-1.9.3-2.4 1l-24.8 32.4c-.8 1-.7 2.5.3 3.3l25.6 21.6c1.2 1 3 .8 3.9-.5l13.4-20a2.6 2.6 0 0 1 3.5-.8l1 .6c1.2.8 1.6 2.3.8 3.5L766.9 257c-.7 1-.5 2.4.5 3.2l41.3 34.9c1.1.9 1.2 2.5.3 3.5l-.9 1c-.9 1-2.5 1-3.5.1L764.4 266c-1.1-1-3-.7-3.8.5l-10 15-.3.8-12.4 48.2c-.3 1.3.5 2.6 1.8 3l52 13.8c1.3.4 2.1 1.8 1.8 3l-.4 1.3c-.4 1.3-1.8 2-3.1 1.7l-51.7-13.9c-1.4-.3-2.8.5-3.2 1.8l-21.3 83.2v.4c0 .4.4.8.9.8h78c1.4 0 2.5 1.1 2.5 2.5v1.2c0 1.4-1.1 2.5-2.6 2.5h-75.4a2.5 2.5 0 0 0-2.6 2.7l7.1 75.5c0 .6.4 1.1.8 1.6l23.5 20.7c1 1 1.1 2.5.2 3.5l-13.8 14.6c-1 1-2.5 1-3.6.1l-88-77.9c-1-1-2.7-.8-3.6.2L610.7 501c-1 1-.8 2.5.2 3.5l45.7 39.2c1 .9 1.1 2.4.2 3.5l-.9.9c-.9 1-2.5 1.1-3.6.2L606.6 509c-1-1-2.6-.8-3.6.2L566.7 548c-.9 1-.8 2.6.2 3.5l30.4 26.1c1.1 1 1.2 2.5.3 3.5l-.9 1c-1 1-2.5 1-3.6.1L562.6 556c-1-.9-2.6-.8-3.6.2l-34.9 37.3c-.9 1-2.5 1.1-3.6.2l-.9-.8c-1-1-1.1-2.5-.2-3.5l34.9-37.3c.9-1 .8-2.5-.2-3.5L505.5 507c-1-.9-2.6-.8-3.5.2l-43.7 46c-1 1-2.5 1-3.6.1l-5.6-5c-1-1-1-2.5-.1-3.5l43.4-45.7c1-1 .9-2.6-.2-3.5l-44-37.8c-1-1-2.6-.8-3.5.1L395 510.1c-1 1-.8 2.7.3 3.6l132.1 101.9c1.1.8 1.3 2.4.4 3.4l-.8 1c-.9 1-2.5 1.3-3.6.4L390.7 518c-1-.8-2.6-.7-3.5.3l-36.1 38c-1 1-1 2.6.2 3.5l111 95.5c1 1 1.2 2.5.2 3.5l-.8 1c-1 1-2.5 1-3.6.1L294.8 519.6c-.9-.8-2.3-.8-3.2-.1l-40 30.2c-1 .8-2.7.6-3.6-.5l-1.7-2.2c-.9-1-2.5-1.1-3.5-.1-.9.9-2.3.9-3.3 0l-88.8-83.2c-1-1-2.6-.9-3.6 0l-38.5 38.8c-.9 1-1 2.3-.1 3.3l19 23.2c.8 1 .6 2.6-.5 3.4l-1 .8c-1 .8-2.7.7-3.6-.4l-18-22a2.6 2.6 0 0 0-3.8-.2l-28.9 29c-1 1-2.6 1-3.6.1l-5.5-5.1c-1-1-1-2.5 0-3.5L93 500.4c.9-1 1-2.3.2-3.3L4.5 388.5c-.8-1-2.3-1.2-3.4-.6l-2.3 1.4c-1.2.7-2.7.4-3.5-.8l-10.8-16.7c-.7-1.2-.3-2.7.9-3.4l35.8-21.7c1.2-.7 1.6-2.3.8-3.4L-20.3 280c-.8-1.2-.5-2.7.7-3.4l17.1-10.8c1.2-.7 2.8-.4 3.5.7l42.7 63.7a2.6 2.6 0 0 0 3.5.8l38.7-23.4c1.2-.8 1.6-2.3.9-3.5l-47.7-73a2.6 2.6 0 0 0-3.6-.8l-44 28c-1.1.7-2.7.4-3.5-.8l-.7-1c-.7-1.2-.4-2.7.8-3.4l44-28c1.2-.8 1.6-2.3.8-3.4l-34.8-53.3c-.7-1.2-.4-2.7.8-3.4l1.1-.7c1.2-.7 2.8-.4 3.5.8l34.7 53.1a2.6 2.6 0 0 0 3.6.8l49.1-31.3c1.2-.7 1.5-2.3.8-3.4l-65.5-97-1-.8A1053.2 1053.2 0 0 1-21 60.9a2.4 2.4 0 0 1-.7-3.4l11.3-16.4a2.6 2.6 0 0 1 3.6-.7c14.4 8.8 54.5 30.2 91.4 49.3 1.3.6 2.9.1 3.5-1.2l43.4-92.6c.6-1.2 2-1.8 3.3-1.2l1.2.5c1.3.6 1.9 2 1.3 3.3l-25.4 54c-.6 1.3 0 2.8 1.4 3.3l145 55.8c1.2.4 2.6 0 3.2-1.2l8.7-16.6c.3-.5.4-1.2.2-1.8l-13.9-50.3V-8c0-1.4 1-2.5 2.5-2.5h7.6c1.4 0 2.6 1.1 2.6 2.5V40l12.5 45.2a2.6 2.6 0 0 0 4 1.4L320.5 63c.4-.2.8-.7 1-1.2l24.6-68.1c.5-1.3 2-2 3.2-1.5l1.2.4c1.4.4 2 1.8 1.6 3.1l-23.7 65.4c-.4 1.3.3 2.8 1.7 3.2l41 12.8c1.3.3 2.6-.2 3.1-1.3l29.5-58.3c.6-1.2 0-2.6-1.1-3.3L363.5-6a2.4 2.4 0 0 1-1-3.3l.6-1.1a2.6 2.6 0 0 1 3.4-1l38.8 20.2c1.3.7 2.9.2 3.5-1.1l1.6-3.1a2.6 2.6 0 0 1 3.4-1.2l1.1.6c1.3.6 1.8 2 1.2 3.3l-1.8 3.5a2.4 2.4 0 0 0 1.1 3.3L463.6 39c.3.1.6 0 .7-.1l11.3-13.2c1.1-1.2.7-3.1-.8-3.8L421-2.4c-1.2-.6-1.8-2-1.2-3.3l.6-1.1a2.6 2.6 0 0 1 3.4-1.2l56.4 25.7c1 .4 2.3.2 3-.7l35.3-41.2c1-1 2.6-1.2 3.6-.4l1 .8c1.1.9 1.2 2.5.3 3.5l-35.2 41.2c-.7.7-.8 1.8-.3 2.7l15.7 28.9Zm-154 128.8c-1.2-1.1-1-3 .4-4l41.9-25.2c1-.6 2.2-.5 3 .3l41.2 35.6c1 .8 1.2 2.2.4 3.3l-28.3 38.1a2.6 2.6 0 0 1-3.7.4l-54.8-48.5Zm93.6.9a2.6 2.6 0 0 1-3.7.4l-37.9-32.7c-1.2-1-1-3 .4-4l104.8-63.1c1.4-.9 3.3-.2 3.8 1.3l12.6 39.5c.4 1.1-.1 2.3-1.2 2.9L458.5 162c-.3.1-.6.4-.8.7l-14.5 19.5Zm83.5-47.7a2.6 2.6 0 0 0-3.7-1.4l-60.1 33.6c-.3.1-.6.4-.8.7L448.2 186c-.8 1.1-.5 2.6.6 3.4l21.7 16 .3.3 11.2 12.2c.9.9 2.2 1.1 3.2.5l56-31.8c1.1-.6 1.6-1.8 1.2-2.9l-15.7-49.2Zm24.7 46.3c-1.4.8-3.2.2-3.7-1.4L532 130.3c-.4-1.1.1-2.3 1.2-2.9l36.3-20.3.5-.2L607.8 96c2.2-.6 4 1.6 3 3.5L573.3 168c-.3.4-.6.8-1 1l-20.9 11.8Zm-19.2-60c-1.4.8-3.2.1-3.7-1.4l-12.7-39.9c-.4-1 0-2.2 1-2.8l86.1-52c1.4-.8 3.3-.2 3.8 1.3l18.9 55.7c.4 1.2-.2 2.5-1.4 3l-.4.2-.3.1-56 16.2-.5.2-34.8 19.4Zm26.2 423.3c1 .9 2.6.8 3.5-.2l36.3-38.8c1-1 .9-2.6-.2-3.5L550 460.2c-1-.9-2.6-.8-3.6.2L509.7 499c-1 1-.8 2.6.2 3.6l48.5 41.6Zm44-47c1 .9 2.6.8 3.5-.2l26.6-28.4c1-1 .9-2.6-.2-3.5l-47.2-41.8c-1-1-2.6-.9-3.6.1l-27.4 29c-1 1-.9 2.5.2 3.4l48 41.4ZM500 490.8c-.9 1-2.5 1-3.5.2l-44-37.8c-1-1-1.1-2.5-.2-3.5l36.6-38.5c1-1 2.5-1.1 3.6-.2l44 37.8c1 .9 1.1 2.5.1 3.5l-36.6 38.5Zm-56-45c1 1 2.5.8 3.5-.2l36.6-38.5c1-1 .9-2.6-.2-3.5l-30.3-26c-1-1-2.6-.9-3.6 0l-37 38.2c-1 1-1 2.6 0 3.5l31 26.5Zm100.4-1.7c-1 1-2.5 1-3.6.2l-44-37.8c-1-1-1-2.5-.1-3.5l28.2-29.7c1-1 2.6-1 3.6-.2l43.3 38.4c1 1 1.2 2.5.2 3.5l-27.6 29.1Zm-56.1-45c1 1 2.6.8 3.6-.1l28.3-29.9c1-1 .9-2.5-.2-3.4L473 323.9c-1.4-1.3-3.7-.6-4.2 1.2l-12.3 46-.1.2v.3l32 27.5Zm-102 107.6c1 .8 2.5.7 3.4-.2l50-52.7c1-1 1-2.6-.2-3.5l-30.9-26.6c-1-.9-2.6-.8-3.5.2L369 461l-.3.3-18.3 13.8a2.4 2.4 0 0 0 0 3.9l36 27.7ZM341 482.1c.9-.7 2.2-.7 3.1 0l37.5 29c1.2.9 1.3 2.5.3 3.6l-35.8 37.6c-.9 1-2.5 1-3.5.2l-42-36.2c-1.2-1-1.2-2.8 0-3.7l40.4-30.5Zm365.3-56.6c.6 0 1-.4 1-1v-.9l21.6-84.2c.4-1.3-.4-2.7-1.8-3l-62.8-16.8c-1-.3-2.1 0-2.8.9l-5 6.6c-.5.6-.6 1.3-.5 2l10.2 47.6v.4l18 46.8c.4 1 1.3 1.6 2.4 1.6h19.7Zm-17.8 9.5c-.6-1.6.6-3.3 2.4-3.3h14.7c1.3 0 2.4 1 2.5 2.2l6 64.4c.3 2.2-2.5 3.6-4.2 2L690.3 483c-.5-.5-.8-1.1-.8-1.8v-43.3c0-.3 0-.6-.2-.9l-.7-2Zm37.2-198.2a2.6 2.6 0 0 1 3.7-.4l26.2 22.1c1 .8 1.2 2.2.5 3.2L744.7 279c-.2.2-.3.4-.3.7l-12.6 48.9a2.6 2.6 0 0 1-3.2 1.8l-58.3-15.6a2.4 2.4 0 0 1-1.3-3.9l56.8-74ZM323.5 68.7h.1v.1l44.2 13.8c1.4.4 2.1 2 1.5 3.4l-11.5 22.7-.5.7-72.5 70.7c-.8.7-1.9 1-2.9.5l-32.5-14.1a2.4 2.4 0 0 1-1.2-3.4l35.1-67 .8-1 39.4-26.4ZM101.6 98.5l-7-3.6c-1-.6-1.6-2-1-3.2l13.6-29c.6-1.3 2-1.8 3.3-1.3L255 116.9c1.4.6 2 2.1 1.3 3.4l-19.8 37.9c-.6 1.2-2.1 1.7-3.3 1.1-48.1-21.3-104-46.7-131.6-60.8Zm395.8-39.2a2.4 2.4 0 0 0 1-3.2l-14-25.6c-.8-1.5-3-1.7-4.2-.4l-11 13c-.8.8-.8 2-.2 3L483 65.2c.8 1.1 2.3 1.4 3.4.7l11.1-6.7Zm138.2 57.3c-.4-2.4-3.7-3-4.8-.9L612.6 149c-.3.4-.4 1-.3 1.4l9.8 70.1a2.5 2.5 0 0 0 2.8 2.1l21.4-2.4a2.5 2.5 0 0 0 2.3-2.7l-8.7-68.8-4.3-32.1ZM721 222.2c1.4-1.7 0-4.1-2.3-3.9l-54 6a2.5 2.5 0 0 0-2.2 2.8l3.4 26.2a2.5 2.5 0 0 0 2.7 2.1l27.7-2.3c.7 0 1.4-.4 1.8-1l23-29.9Zm9.4-12.2c-.4.5-1 .9-1.7 1l-64.7 7.2c-1.4.2-2.7-.8-2.9-2.1l-5.4-42.6c-.2-1.7 1.5-3.1 3.3-2.6l67.1 18.7 13.7 2c2 .3 2.8 2.4 1.7 4l-11 14.4ZM101.1 492.3c-1 1-2.9 1-3.8-.2l-87-106.5c-1-1.1-.7-2.8.6-3.6l26.4-16c1-.5 2.2-.4 3 .4l97.4 85.4c1 1 1.1 2.6.1 3.6l-36.7 36.9ZM412.8 19.6a2.6 2.6 0 0 0-3.5 1L379 80.5v.2h.2l71.4-36.9c1.8-.9 1.8-3.4 0-4.3l-38-19.8Zm49.4 27.7c-.8-1-2.2-1.4-3.3-.8L386.3 84a2.4 2.4 0 0 0-.8 3.8l21.1 23.8c.9 1 2.3 1.2 3.3.5L476.6 72c1.2-.7 1.6-2.3.7-3.5l-15.1-21.1ZM400 118c1.3-.8 1.6-2.6.6-3.7l-22.1-25a2.6 2.6 0 0 0-4.2.5L363 112.4c0 .2-.2.4-.4.6L290 183.7c-.1.1 0 .4.1.5h.4L400 118ZM92 301a2.6 2.6 0 0 0 3.6.7l51.2-31c1.3-.7 1.6-2.2.8-3.4L98 193.7a2.6 2.6 0 0 0-3.6-.7l-49.3 31.3a2.4 2.4 0 0 0-.8 3.4L92.2 301Zm158 218.4c-1 .8-2.4.7-3.3-.1l-78.4-73.5c-1-1-1-2.5 0-3.4l15.2-15.4c1-1 2.5-1 3.5-.1l84.5 72.6c1.2 1 1.1 2.9-.1 3.8L250 519.5Zm-94.6-85.3c1 .9 2.6.8 3.5-.2l14.9-15c1-1 1-2.5-.1-3.5L85 339.3c-.8-.7-2-.8-3-.2l-17.8 10.7a2.4 2.4 0 0 0-.4 4l91.6 80.4Zm125.2 62.3c-1 .7-2.4.6-3.3-.1l-85.7-73.7c-1.1-1-1.2-2.6-.2-3.6l29.3-29.4c.9-.9 2.3-1 3.4-.2l95.4 73.7c1.3 1 1.3 2.9 0 3.8l-39 29.5Zm-102.4-85.3c1 .9 2.6.8 3.6-.1l28.5-28.7c1-1.1 1-2.8-.2-3.7l-83.7-64.5c-.8-.7-2-.7-3-.2l-31.3 19a2.4 2.4 0 0 0-.3 3.9l86.4 74.3ZM329 460c-1 .7-2.2.7-3.1 0L229 385.3a2.4 2.4 0 0 1-.3-3.6l58.7-59c1-1 2.6-1 3.6-.2l94.8 81.5c1.1 1 1.2 2.6.2 3.6l-34.2 35.1-.3.3-22.6 17Zm-114-85.5c1.1.8 2.6.7 3.5-.2l59.4-59.7c1-1 1-2.6-.2-3.6l-60-51.6c-.9-.7-2.1-.8-3.1-.3l-80.6 48.7c-1.5.9-1.6 3-.2 4l81.3 62.7Zm179 25c-1 1-2.6 1-3.6.2l-94.8-81.5c-1-1-1.1-2.5 0-3.6l37.4-37.7c1-1 2.5-1 3.6-.1l94.3 81c1 1 1.1 2.6.2 3.6l-37.1 38.1Zm-111.7-92.8c1 1 2.6.8 3.5-.1l37.5-37.7c1-1 1-2.7-.1-3.6l-47.6-40.9c-.8-.7-2-.8-3-.2L224.6 253a2.4 2.4 0 0 0-.3 4l57.9 49.7ZM436 349.3c-.5 1.8-2.7 2.4-4.2 1.2l-90.8-78c-1-1-1.1-2.6-.1-3.6l31-31.2c1-1 2.6-1 3.6-.1l72 63.7c.7.6 1 1.6.7 2.4v.4l-.4.8v.1L436 349.3ZM327.7 261c1 .9 2.6.8 3.5-.2l31.2-31.4c1-1 1-2.6 0-3.5L326 194c-.8-.8-2-.9-3-.3L282.6 218a2.4 2.4 0 0 0-.3 4l45.4 39Zm323.6 45.4c.4 2 3.2 2.7 4.5 1l33.3-43.4c1.3-1.7-.1-4-2.3-3.9l-21 1.8a1 1 0 0 0-.6.3l-17.8 21.5c-.5.6-.7 1.3-.5 2l4.4 20.7ZM642 324c.2.7 0 1.4-.4 2l-50.3 65.6a2.6 2.6 0 0 1-3.8.3l-19.4-17.2c-1.1-1-1.2-2.6-.2-3.6l22.8-23.3.2-.5c0-.2 0-.4.2-.6l24.3-25.2.3-.4 15-23.6c.1-.3.5-.5.8-.6.7 0 1.2-.7 1.1-1.3v-.4c-.1-.4 0-.7.2-1 .8-1.3 2.7-1 3 .5L642 324Zm-41.2 79.6c-1-.8-1.2-2.3-.4-3.3l42-54.6c1.2-1.7 4-1.1 4.5 1L654 380l.1.4 22.5 58.6.1.9v25.3c0 2.1-2.6 3.3-4.2 1.8l-71.7-63.5Zm22.8-172c-.2-1.4.9-2.7 2.3-2.9l21.3-2.3c1.3-.2 2.6.8 2.8 2.1l3.5 27.9a.3.3 0 0 1-.2.3l-23.4 2c-1.4 0-2.6-.9-2.8-2.2l-3.5-25Zm5 36c-.1-1.5 1-2.7 2.4-2.8l11-1c2.2-.1 3.6 2.3 2.2 4l-11 13.4c-.2.1-.2.3-.2.5v.4l-.2.2c-.6.9-2 .6-2.1-.5l-2-14.3Zm84.2-110.9c.1 1.7-1.6 3-3.3 2.6l-42.5-12c-1-.2-1.7-1-1.9-2l-5.8-43v-.5l-1-2.7c-.4-1.2.2-2.5 1.4-3l43.7-19.5c1.7-.8 3.5.3 3.7 2l5.7 78.1Zm-612.3 25c-1.2.8-2.7.4-3.5-.7l-53.8-79.6c-1.4-2.1 1-4.7 3.4-3.5l43 22.4c13.8 7 34.3 16.7 57.3 27.3 1.8.9 2 3.3.3 4.3l-21.8 14-24.9 15.8Zm36.8-11.3c-2-.8-2.2-3.3-.5-4.4l19.7-12.6c.8-.5 1.7-.6 2.5-.2 34.2 15.6 72 32.4 101 45 1.8.7 2 3.2.2 4.3l-13.5 8.1c-.7.4-1.5.5-2.2.2l-107.2-40.4Zm-12.2 3.1c.7-.4 1.5-.5 2.3-.2l106.8 40.3c2 .7 2.2 3.3.4 4.4l-78 47c-1 .7-2.6.4-3.4-.8l-50-74c-.7-1-.4-2.6.8-3.3l21-13.4ZM563 367c-.9 1-2.5 1-3.5.2L480.3 297c-.8-.7-1-1.8-.6-2.8l23.5-56.8c.2-.5.6-1 1-1.2l57.8-32.7c1.5-1 3.5 0 3.8 1.8L584 344.8v.4l.1.1v.3l-21 21.4ZM412.7 234c-.7 1.1-.6 2.5.4 3.3l43.2 38.3c1.3 1.2 3.4.7 4-.9l19.8-47.6c.4-.9.2-1.9-.4-2.6l-13.1-14.3-.4-.3-21-15.4a2.6 2.6 0 0 0-3.6.6l-28.9 39Zm190.8-68.2c1.1-2.1 4.4-1.6 4.7.8l7.7 54.5c.2 1.4-.9 2.7-2.3 2.8l-35.8 4c-1.4.2-2.6-.7-2.8-2l-3.4-26c-.2-1 .3-2 1.2-2.5l18.7-10.6c.4-.3.8-.6 1-1l11-20Zm-9.9 169.4c-1.5 1.5-4.1.7-4.4-1.4l-12.8-97c-.1-1.3.9-2.6 2.3-2.7l35.9-4c1.4-.2 2.6.7 2.8 2l8.4 60.3c.1.6 0 1.1-.3 1.6l-14.8 23.3c0 .2-.1.3-.3.4l-16.8 17.5Z" fill="#fff"/></g><defs><clipPath id="a"><path fill="#fff" d="M0 0h784v544H0z"/></clipPath></defs></svg>